<?xml version="1.0" encoding="UTF-8"?><svg id="Layer_2" xmlns="http://www.w3.org/2000/svg" viewBox="0 0 525.17 340.83"><defs><style>.cls-1{stroke-dasharray:0 0 0 0 30.41 30.41 25.34 30.41;}.cls-1,.cls-2,.cls-3,.cls-4{fill:none;stroke:#B026FF;stroke-miterlimit:10;}.cls-1,.cls-3{stroke-width:1.43px;}.cls-2{stroke-width:17.13px;}.cls-4{stroke-width:2.86px;}</style></defs><g id="Layer_1-2"><rect class="cls-3" x="17.37" y="155.39" width="11.06" height="178.64"/><line class="cls-2" x1="33.95" y1="185.39" x2="33.95" y2="334.03"/><rect class="cls-3" x="50.55" y="125.38" width="11.06" height="208.65"/><line class="cls-2" x1="67.16" y1="244.71" x2="67.16" y2="334.03"/><rect class="cls-3" x="83.75" y="185.39" width="11.06" height="148.64"/><line class="cls-2" x1="100.36" y1="215.4" x2="100.36" y2="334.03"/><rect class="cls-3" x="116.95" y="215.4" width="11.06" height="118.63"/><line class="cls-2" x1="133.56" y1="274.1" x2="133.56" y2="334.03"/><rect class="cls-3" x="150.17" y="95.37" width="11.06" height="238.66"/><line class="cls-2" x1="166.75" y1="185.39" x2="166.75" y2="334.03"/><rect class="cls-3" x="183.42" y="35.36" width="11.06" height="298.67"/><line class="cls-2" x1="200.03" y1="65.37" x2="200.03" y2="334.03"/><rect class="cls-3" x="216.62" y="95.37" width="11.06" height="238.66"/><line class="cls-2" x1="233.21" y1="155.39" x2="233.21" y2="334.03"/><rect class="cls-3" x="249.81" y="184.7" width="11.06" height="149.34"/><line class="cls-2" x1="266.41" y1="245.41" x2="266.41" y2="334.03"/><rect class="cls-3" x="283.03" y="214.18" width="11.06" height="119.86"/><line class="cls-2" x1="299.61" y1="274.72" x2="299.61" y2="334.03"/><rect class="cls-3" x="316.22" y="184.7" width="11.06" height="149.34"/><line class="cls-2" x1="332.82" y1="214.18" x2="332.82" y2="334.03"/><rect class="cls-3" x="349.42" y="155.39" width="11.06" height="178.64"/><line class="cls-2" x1="366.04" y1="244.71" x2="366.04" y2="334.03"/><rect class="cls-3" x="382.7" y="184.7" width="11.06" height="149.34"/><line class="cls-2" x1="399.32" y1="274.72" x2="399.32" y2="334.03"/><rect class="cls-3" x="415.99" y="244.71" width="11.06" height="89.32"/><line class="cls-2" x1="432.61" y1="275.41" x2="432.61" y2="334.03"/><rect class="cls-3" x="449.29" y="215.4" width="11.06" height="118.63"/><line class="cls-2" x1="465.91" y1="304.37" x2="465.91" y2="334.03"/><polyline class="cls-4" points="520.11 335 5.35 335 5.35 5.35"/><line class="cls-3" x1="181.51" y1="35.36" x2="164.38" y2="35.36"/><line class="cls-1" x1="139.04" y1="35.36" x2="37.69" y2="35.36"/><line class="cls-3" x1="22.49" y1="35.36" x2="5.35" y2="35.36"/><polygon points="525.17 335 515.06 329.16 515.06 340.83 525.17 335"/><circle cx="5.35" cy="215.4" r="5.35"/><circle cx="5.35" cy="155.39" r="5.35"/><circle cx="5.35" cy="95.37" r="5.35"/><circle cx="5.35" cy="35.36" r="5.35"/><circle cx="5.35" cy="5.35" r="5.35"/><circle cx="5.35" cy="275.41" r="5.35"/></g></svg>