<?xml version="1.0" encoding="UTF-8"?><svg id="Layer_2" xmlns="http://www.w3.org/2000/svg" viewBox="0 0 268.67 268.7"><defs><style>.cls-1{fill:#af24ff;}.cls-2{fill:none;stroke:#af24ff;stroke-miterlimit:10;}</style></defs><g id="Layer_1-2"><path class="cls-2" d="m268.17,134.36c0,23.5-6.06,45.57-16.67,64.73-8.15,14.7-18.96,27.68-31.76,38.31-13.84,11.49-29.99,20.24-47.72,25.42h-.03c-10.24,3-20.96,4.8-32.02,5.2-.94.06-1.86.09-2.8.11-.2,0-.43.03-.63,0-.74.06-1.46.06-2.2.06s-1.46,0-2.2-.06c-.2.03-.43,0-.63,0-.94-.03-1.86-.06-2.8-.11-11.06-.4-21.82-2.2-32.05-5.23-17.73-5.15-33.91-13.92-47.75-25.39-12.81-10.66-23.62-23.65-31.74-38.31C6.56,179.94.5,157.87.5,134.36s6.06-45.57,16.67-64.76c8.12-14.67,18.93-27.65,31.74-38.31,13.84-11.47,30.02-20.24,47.75-25.39,10.24-3.03,20.99-4.83,32.05-5.23.94-.06,1.86-.09,2.8-.11.2,0,.43-.03.63,0,.74-.06,1.46-.06,2.2-.06s1.46,0,2.2.06c.2-.03.43,0,.63,0,.94.03,1.86.06,2.8.11,11.07.4,21.79,2.2,32.02,5.2,17.73,5.17,33.91,13.92,47.75,25.42,12.81,10.64,23.62,23.62,31.76,38.31,10.61,19.18,16.67,41.26,16.67,64.76Z"/><path class="cls-2" d="m243.84,134.36c0,19.1-3.29,37.25-9.18,53.69-5.69,15.9-13.87,30.19-23.93,42.14-11.55,13.81-25.62,24.47-41.26,30.96-9.32,3.86-19.24,6.23-29.51,6.86-.94.06-1.86.09-2.8.11-.2,0-.43.03-.63,0-.74.06-1.46.06-2.2.06s-1.46,0-2.2-.06c-.2.03-.43,0-.63,0-.94-.03-1.86-.06-2.8-.11-10.26-.63-20.19-3-29.51-6.89-15.64-6.46-29.71-17.13-41.29-30.94-10.04-11.95-18.21-26.25-23.9-42.14-5.89-16.44-9.18-34.6-9.18-53.69s3.29-37.28,9.18-53.72c5.72-15.93,13.87-30.19,23.9-42.14,11.58-13.78,25.62-24.47,41.26-30.94h.03c9.32-3.89,19.24-6.26,29.51-6.89.94-.06,1.86-.09,2.8-.11.2,0,.43-.03.63,0,.74-.06,1.46-.06,2.2-.06s1.46,0,2.2.06c.2-.03.43,0,.63,0,.94.03,1.86.06,2.8.11,10.26.63,20.16,3,29.48,6.86h.03c15.64,6.49,29.71,17.15,41.26,30.96,10.06,11.95,18.21,26.22,23.93,42.14,5.89,16.44,9.18,34.62,9.18,53.72Z"/><path class="cls-2" d="m219.51,134.36c0,15.38-1.66,30.14-4.72,43.86-3.6,16.47-9.23,31.45-16.41,44.29-8.83,15.93-20.1,28.53-32.85,36.43-9.01,5.58-18.78,8.81-28.99,9.21-.74.06-1.46.06-2.2.06s-1.46,0-2.2-.06c-10.21-.4-19.99-3.63-28.99-9.23-12.75-7.86-24.02-20.47-32.85-36.4-7.18-12.84-12.81-27.82-16.41-44.29-3.06-13.72-4.72-28.48-4.72-43.86s1.66-30.13,4.72-43.89c3.6-16.47,9.23-31.45,16.41-44.29,8.83-15.93,20.07-28.51,32.82-36.4h.03c9.01-5.6,18.78-8.83,28.99-9.23.74-.06,1.46-.06,2.2-.06s1.46,0,2.2.06c10.21.4,19.99,3.63,28.99,9.21,12.75,7.89,24.02,20.5,32.85,36.43,7.18,12.84,12.81,27.82,16.41,44.29,3.06,13.75,4.72,28.51,4.72,43.89Z"/><ellipse class="cls-2" cx="134.33" cy="134.35" rx="60.84" ry="133.84"/><ellipse class="cls-2" cx="134.33" cy="134.35" rx="36.5" ry="133.84"/><line class="cls-2" x1="134.33" y1=".51" x2="134.33" y2="268.19"/><line class="cls-2" x1="268.17" y1="134.35" x2=".49" y2="134.35"/><path class="cls-2" d="m268.17,134.36c0,23.5-6.06,45.57-16.67,64.73-8.15,14.7-18.96,27.68-31.76,38.31-13.84,11.49-29.99,20.24-47.72,25.42h-.03c-10.24,3-20.96,4.8-32.02,5.2-.94.06-1.86.09-2.8.11-.2,0-.43.03-.63,0-.74.06-1.46.06-2.2.06s-1.46,0-2.2-.06c-.2.03-.43,0-.63,0-.94-.03-1.86-.06-2.8-.11-11.06-.4-21.82-2.2-32.05-5.23-17.73-5.15-33.91-13.92-47.75-25.39-12.81-10.66-23.62-23.65-31.74-38.31C6.56,179.94.5,157.87.5,134.36s6.06-45.57,16.67-64.76c8.12-14.67,18.93-27.65,31.74-38.31,13.84-11.47,30.02-20.24,47.75-25.39,10.24-3.03,20.99-4.83,32.05-5.23.94-.06,1.86-.09,2.8-.11.2,0,.43-.03.63,0,.74-.06,1.46-.06,2.2-.06s1.46,0,2.2.06c.2-.03.43,0,.63,0,.94.03,1.86.06,2.8.11,11.07.4,21.79,2.2,32.02,5.2,17.73,5.17,33.91,13.92,47.75,25.42,12.81,10.64,23.62,23.62,31.76,38.31,10.61,19.18,16.67,41.26,16.67,64.76Z"/><path class="cls-2" d="m251.5,199.09c-8.15,14.7-18.96,27.68-31.76,38.31-13.84,11.49-29.99,20.24-47.72,25.42h-.03c-10.24,3-20.96,4.8-32.02,5.2-.94.06-1.86.09-2.8.11-.2,0-.43.03-.63,0-.74.06-1.46.06-2.2.06s-1.46,0-2.2-.06c-.2.03-.43,0-.63,0-.94-.03-1.86-.06-2.8-.11-11.06-.4-21.82-2.2-32.05-5.23-17.73-5.15-33.91-13.92-47.75-25.39-12.81-10.66-23.62-23.65-31.74-38.31,5.29-3.97,10.92-7.66,16.84-11.04,6.29-3.63,12.95-6.92,19.87-9.84,7-2.97,14.32-5.58,21.87-7.75,7.46-2.14,15.15-3.89,23.07-5.2,11.44-1.92,23.33-2.92,35.51-2.92s24.07,1,35.51,2.92c7.92,1.32,15.61,3.06,23.07,5.2,7.55,2.17,14.87,4.77,21.87,7.75,6.92,2.92,13.58,6.2,19.87,9.84,5.92,3.37,11.55,7.06,16.84,11.04Z"/><path class="cls-2" d="m171.99,262.82c-10.24,3-20.96,4.8-32.02,5.2-.94.06-1.86.09-2.8.11-.2,0-.43.03-.63,0-.74.06-1.46.06-2.2.06s-1.46,0-2.2-.06c-.2.03-.43,0-.63,0-.94-.03-1.86-.06-2.8-.11-11.06-.4-21.82-2.2-32.05-5.23.83-.57,1.66-1.12,2.54-1.66,1.26-.8,2.57-1.54,3.95-2.23,1.92-1,3.92-1.92,6-2.72,2.72-1.06,5.58-1.97,8.52-2.69,5.26-1.26,10.86-1.94,16.67-1.94s11.41.69,16.67,1.94c2.94.74,5.8,1.63,8.52,2.69,2.09.8,4.09,1.72,6,2.74,1.34.69,2.69,1.43,3.95,2.23.86.51,1.72,1.09,2.52,1.66Z"/><path class="cls-2" d="m219.74,237.41c-13.84,11.49-29.99,20.24-47.72,25.42h-.03c-10.24,3-20.96,4.8-32.02,5.2-.94.06-1.86.09-2.8.11-.2,0-.43.03-.63,0-.74.06-1.46.06-2.2.06s-1.46,0-2.2-.06c-.2.03-.43,0-.63,0-.94-.03-1.86-.06-2.8-.11-11.06-.4-21.82-2.2-32.05-5.23-17.73-5.15-33.91-13.92-47.75-25.39,2.83-2.54,5.83-4.95,9.01-7.21,3.89-2.8,8.03-5.38,12.38-7.69,4.95-2.69,10.18-5.03,15.67-7.06,5.83-2.17,11.95-3.95,18.27-5.32,9.58-2.06,19.67-3.17,30.11-3.17s20.53,1.12,30.11,3.17c6.35,1.37,12.44,3.14,18.27,5.32,5.49,2.03,10.72,4.37,15.67,7.06,4.35,2.34,8.46,4.89,12.35,7.69,3.17,2.26,6.18,4.66,9.01,7.21Z"/><path class="cls-2" d="m251.5,69.6c-5.29,3.97-10.92,7.66-16.84,11.04-6.29,3.63-12.95,6.92-19.87,9.84-7.01,2.97-14.32,5.58-21.87,7.75-7.46,2.14-15.15,3.89-23.07,5.2-11.44,1.92-23.33,2.92-35.51,2.92s-24.07-1-35.51-2.92c-7.92-1.32-15.61-3.06-23.07-5.2-7.55-2.17-14.87-4.77-21.87-7.75-6.92-2.92-13.58-6.2-19.87-9.84-5.92-3.37-11.55-7.06-16.84-11.04,8.12-14.67,18.93-27.65,31.74-38.31,13.84-11.47,30.02-20.24,47.75-25.39,11.09-3.29,22.79-5.12,34.85-5.35.94-.06,1.89-.06,2.83-.06s1.89,0,2.83.06c12.07.23,23.73,2.06,34.82,5.32,17.73,5.17,33.91,13.92,47.75,25.42,12.81,10.64,23.62,23.62,31.76,38.31Z"/><path class="cls-2" d="m171.99,5.88c-.8.57-1.66,1.14-2.52,1.66-1.26.8-2.6,1.54-3.95,2.23-1.92,1.03-3.92,1.94-6,2.74-2.72,1.06-5.58,1.94-8.52,2.69-5.26,1.26-10.86,1.94-16.67,1.94s-11.41-.69-16.67-1.94c-2.94-.71-5.8-1.63-8.52-2.69-2.09-.8-4.09-1.72-6-2.72-1.37-.69-2.69-1.43-3.95-2.23-.89-.54-1.72-1.09-2.54-1.66,11.09-3.29,22.79-5.12,34.85-5.35.94-.06,1.89-.06,2.83-.06s1.89,0,2.83.06c12.07.23,23.73,2.06,34.82,5.32Z"/><path class="cls-2" d="m219.74,31.29c-2.83,2.54-5.83,4.95-9.01,7.21-3.89,2.8-8.01,5.35-12.35,7.69-4.95,2.69-10.18,5.03-15.67,7.06-5.83,2.17-11.92,3.95-18.27,5.32-9.58,2.06-19.67,3.17-30.11,3.17s-20.53-1.11-30.11-3.17c-6.32-1.37-12.44-3.15-18.27-5.32-5.49-2.03-10.72-4.37-15.67-7.06-4.35-2.32-8.49-4.89-12.38-7.69-3.17-2.26-6.18-4.66-9.01-7.21,13.84-11.47,30.02-20.24,47.75-25.39,11.09-3.29,22.79-5.12,34.85-5.35.94-.06,1.89-.06,2.83-.06s1.89,0,2.83.06c12.07.23,23.73,2.06,34.82,5.32,17.73,5.17,33.91,13.92,47.75,25.42Z"/><path class="cls-1" d="m214.64,233.95c-.71-.04-1.06.6-1.62.86-.01-.02-.03-.05-.04-.08.09-.23.09-.24.04-.34-.14.04-.21.06-.71.48-2.33,1.96-3.29,3.14-3.86,3.85-.61.75-1.76,1.43-2.54,2-.27.79-1.01,1.51-3.74,3.69-2.07,1.65-2.47,2.02-2.85,2.64,0,0,0,0,0,0,1.32-.17,4.05-1.94,4.4-2.24.1-.09,10.77-10.41,10.92-10.86Z"/><path class="cls-1" d="m197.85,248.27l-.52.39-.14.21c.59-.46,1.48-1,2.13-1.38-.32.1-.55.18-.85.36-.19.11-.43.29-.62.42Z"/><path class="cls-1" d="m264.89,163.17l-.18.85-.16.71c-.09.37-.18.74-.27,1.11,0,0,0,0,0,0,0,0,0,0,0,0s0,0,0,0,0,0,0,0l.09-.39c.05-.21.1-.42.15-.63-.06.11-.07.27-.1.39,0,.02-.4,1.66-.52,1.81,0-.01,0-.03,0-.05-.24,1.01-.35,1.56-.32,1.62.16-.33.2-.69.29-1.04h0l.71-2.85c.2-.85.39-1.7.57-2.56l-.24,1Z"/><path class="cls-1" d="m264.68,163.51s0-.02,0-.03c0,0,0,0-.01,0q-.05.05-.38,1.02l-.33,1.3.07.06c.22-.78.44-1.56.66-2.34Z"/><path class="cls-1" d="m216.77,239.84c-.11.08-.25.19-.36.28-2.06,1.62-3.51,2.73-5.24,3.93-.1.07-.19.13-.28.21,0,0,.02.02.03.02q0,.06-.16.18c-.89.69-.98.79-1.01.83.18-.03,4.62-3.12,7.02-5.06l.08-.11c-.55.41-.7.5-.8.53.15-.36.49-.55.73-.82Z"/><path class="cls-1" d="m252.04,196.07c-1.54-4.04,2.63-6.23,3.12-9.61-1.49.05-3.28,2.67-4.39,4.54-.43.4-.79.64-1.07.64-.07,0-.17,0-.26.21-.08.18-.32,1.31.15,1.13.02,0,.06-.04.08-.05-1.22,2.19-1.82,3.1-2.66,3.53-.22-.27-.28-.63-.52-.89-1.17.24-3.25,4.03-4.09,5.64q-.77,1.48-1.27,1.82c.05-.23.03-.55-.03-.78-1.56,1.67-2.49,3.8-3.99,5.52-2.71,3.09-6.77,4.56-9.36,7.79-.81,1.01-.95,1.19-5.12,7.81-.23.17-.45.38-1.06.97-1.68,1.62-1.91,1.81-2.28,1.83-.11-.37.23-.65.21-1-.36-.13-1.09.68-1.23.84h0c-1.32,1.51-2.2,3.34-3.46,4.89-.88,1.08-1.96,1.98-2.79,3.1-.17.23-.37.58-.33.9q.15.03.34-.12l5.79-4.78s.07-.06.09-.09c.16-.16.2-.28.28-.54.11-.36.35-.84,1.42-1.92.38-.39.78-.74,1.18-1.11-.26.42-.52.82-.8,1.28-1.99,3.15-4.64,5.8-6.74,8.87q-.41.61-.53,1.2s5.2-1.77,11.03-6.62c.05-.04,4.83-3.91,5.69-3.56-.08.38-.23.71-.41,1.01-2.34,2.5-5.02,5.2-8.37,8.34.5-.32.93-.72,1.39-1.09-.27.31-.3.34-1.52,1.44.17-.11.34-.22,1.31-1.08l.39-.35c3.81-3.48,5.64-5.21,8.19-8,2.59-2.65,4.29-4.64,7.53-8.6,3.1-3.92,4.5-5.75,6.65-9.07,2.31-3.28,3.49-5.26,6-9.65l2.14-3.94c3.73-7.33,4.29-9.3,5.79-14.58-.14.24-.16.29-.39.92-1.81,5.08-5.08,12.39-6.08,13.21Zm-29.39,39.28c1.55-1.5,2.88-2.77,4.01-3.88-1.04,1.06-2.38,2.36-4.01,3.88Z"/><path class="cls-1" d="m96.52,10.78c2.45-1.12,4.75-2.55,7.27-3.5,9.39-3.56,16.28-5.07,24.25-6.82.71-.16,1.43-.3,2.15-.45h0c-18.82,2.53-36.67,9.43-52.69,19.63,4.7-1.98,8.51-5.71,13.6-6.94.03,0,4.66-1.58,5.41-1.92Z"/><path class="cls-1" d="m207.75,141.27c2,2.48.86,6.24,3.45,8.48.36,0,.36,0,.37,0,0,0,0,0,0,0,0,0,0,0,0,0,0,0,0,0,0,0s0,0,0,0c0,0,0,0,0,0h0s0,0,0,0q1.24-.76,3.91-3.86c2.39,2.11,2.23,5.38,3.62,7.94.28,12.22,2.72,19.05,8.42,23.56,2.05-9.22-9.93-15.03-5.98-24.71.23.33.55.77.78,1.09,1.88-.27,2.36-.23,4.84,2.43.16-.13.37-.3.53-.43v1.53s1.08-.59,1.08-.59c.03.89-.01,2.09-.07,2.98.38.05.88.11,1.25.16,5.34-4.91,8.29-14.98.56-18.99-3.41-1.77-2.05-9.54,1.72-9.79.21.33.49.76.7,1.09,16.7-19.99,6.37-27.93,6.26-28-.01,0-1.21-1.07-.7-3.62q-6.17-7.6-6.23-12.99c-.27-.25-.64-.58-.91-.84q-1.51.35-2.46,2.43c-1.3-.72-2.31-1.88-3.69-2.46-.14-.35-.32-.81-.45-1.15.27-.12.63-.27.89-.39-.07-4.5-.07-4.58-.24-6.84.36.12.84.27,1.2.38q1.13,2.89,2.2,5.04c.21-.78.38-1.86.42-2.67.32-.29.74-.68,1.06-.97q.55.56,3.06,5.31c.34-.2.78-.48,1.12-.68.38.15.88.35,1.26.5.88,2.23,2.09,4.31,2.89,6.57,2.17-4.04,2.75-5.12-4.02-10.78-2.49-2.08-4.51-9.17-5.27-12.12.35-.17.82-.39,1.17-.55.11-.39.25-.91.36-1.3-2.1-8.54-7.87-14.35-19.36-25.94-.15-.14-.25-.23-.36-.32.64.46,1.29.92,1.91,1.41,5.52,4.38,10.26,9.64,15.74,14.06-.49-.58-.98-1.16-1.48-1.74.42.02.84,0,1.26.02.05,0,.12,0,.18,0-2.57-1.92-4.34-3.43-7.27-6.22.5.02,1,.05,1.5.07-4.59-3.4-8.92-7.13-13.56-10.45-.46-.33-1.6-1.07-2.27-.85q-.21-.17-.34-.21c0,.22.57.91,1.26,1.51.34.3.71.56,1.07.83-.09-.06-.19-.13-.27-.19-.73-.3-1.79-.51-2.58-.52.22.31.5.72.72,1.02-.12.05-.29.11-.41.15-.42-.1-.99-.23-1.41-.33-.29.22-.69.51-.98.72-.11-.07-11.13-8.45-13.91-17.99q.21-.52.21-.52s0,0,0,0,0,0,0,0c0,0,0,0,0,0h0s0,0,0,0c0,0,0,0,0,0,0,0,0,0,0,0l1.08,1.02c.17-.32.39-.76.56-1.08-3.68-2.78-8.69-3.48-11.65-7.4q2.71,1.23,3.3,1.33l1.35.64c-1.44-.96-2.98-1.76-4.43-2.71-1.61-.69-3.27-1.27-4.85-2.03,4.8,1.26,8.67,4.51,13.26,6.21,9.13,7.93,20.09,13.08,30.06,19.71-2.08-2.38-5.08-3.81-6.8-6.56-.14-.08-24.29-14.34-26.97-16.01.36.08.85.18,1.21.26-10.89-6.38-23.81-7.12-35.03-12.59-.54-.14-1.21-.5-1.69-.78-2.52-.38-11.57-1.2-11.64-1.21l-1.27-.09h-.29q.71.11,5.03.53c-1.89-.11-3.79-.24-5.68-.3,2.53.98,5.25,1.01,7.87,1.59q-1.48-.17-4.54-.73c2.16.49,2.64.62,4.31,1.2q-1.14-.07-4.17-.66c.89.38,2.07.89,2.95,1.27q-2.29-.74-3.98-1.01c-.36-.09-.84-.22-1.2-.31.82.32,1.92.74,2.75,1.04-.32-.11-.74-.25-1.06-.36l-1.02-.36-.74-.22-.06.29.77.27.76.28.15.1c1.87.66,3.61,1.64,5.49,2.28v.06s-1,.38-1,.38c2.18,1.05,2.22,1.07,3.98,2.06-2.74-.87-5.25-2.27-7.89-3.38-.16.08-.36.19-.52.28l.56.28.64.4c-.35.08-.83.2-1.18.28.18.41.41.95.58,1.36-.3-.25-.7-.59-1-.84.02.19.04.44.06.63.44.7.99,1.65,1.38,2.38-4.34-5.17-4.7-5.59-8.32-7.93.16.21.37.49.53.71l.23.29-.39-.38-.94-.87.27.34c-.3-.32-.69-.76-1.01-1.07q2.67,3.4,2.96,4.56l-.08.2-.2.32q.09,1.19,1.78,6.39c-.1-.1-.22-.24-.32-.34l-.38-.15c-.36.66-.81,1.57-1.12,2.26q3.79,5.13,4.83,8.48c-1.65-4.19-2.93-5.12-4.29-6.09-.32.23-.74.53-1.06.76.24.77.8,1.73,1.29,2.37q-1.8-.42-2.7-2.6c.1,1.5.21,2.59.36,3.54-.87-1.97-1.79-3.49-2.3-3.96-2.16,3.99.92,11.77,1.05,12.1q-4.18-2.43-5.53-2.69c-.31.7-.39,1.8-.24,2.56q-2.35.57-3.69,1.75c-.08-.25-.18-.57-.26-.82l.45-.74s-4.37,2.18-6.45,5.21c-.27-.25-.63-.59-.91-.85.46-.63.92-1.59,1.07-2.35-.33-.23-.77-.53-1.1-.76q-.58.71-2.14,5.94c-1.12-.02-2.65-.04-4.59,4.37-.6-.43-1.51-.89-2.21-1.12-.05.73.11,1.72.37,2.4-.35.2-.82.47-1.17.68-.97-2.33-.08-4.75-.34-7.11q2.88,1.72,3.31,1.87c4.18-2.45,2.41-8.1-.92-9.1.23-.31.53-.72.75-1.02-.37-.05-.87-.12-1.25-.17.14-.4.33-.94.47-1.34-.21-.37-.48-.86-.69-1.23l.52-.87-.42-.03c-.43.49-1.1,1.15-1.73,1.31l-.81.76.61-.72.74-.66.06-.47c-.36.15-36.02,19.36-35.74,29.45q1.18.68,4.78-.81c.29.26.67.62.95.88-.62,2.73-3.16,5.02-1.91,8.19,4.33-.03,7.37-6.07,7.39-6.13,2.48-6.62,4.83-12.87,12.98-17.08.1.43.24,1,.34,1.43q-9.28,13.2-6.02,13.24c1.72.02,3.38-.52,5.09-.49-.03.38-.07.89-.1,1.28-.71.24-1.73.39-2.48.34-.14-.03-.18-.04-.21-.04-.03,0-.06,0-.1-.01-.03,0-.06,0-.1-.01s-.06,0-.1-.01-.06,0-.1-.01c-.03,0-.06,0-.1-.01-.03,0-.06,0-.1-.01-.03,0-.07,0-.1-.01q-2.96.49-3.87,5.59c-.38.11-.88.26-1.26.37-.31-.21-.73-.5-1.04-.72-2.31,1.14-2.75,3.28-1.31,6.36l-.68.39q-1.38-.03-4.54.48c-.03-.44-.08-1.02-.11-1.45-.36-.12-.83-.28-1.19-.39-1.33.54-2.64,1.1-3.97,1.63-.39-.64-.99-1.44-1.49-2-.39.13-.91.32-1.29.45-.34-.2-.8-.47-1.14-.67-.03-.42-.06-.99-.09-1.41.84.67,2.59,2.06,3.87-1.5-.69-.14-1.67-.17-2.36-.02l.45-1.26c.47-.61,1-1.51,1.25-2.23q-1.06.04-6.27,7.8c-.31-.01-.32-.01-.32-.01,0,0,0,0,0,0h0s0,0,0,0,0,0,0,0h0s0,0,0,0h0q-2.43.13-13.4,7.9l-.66-.59-.77-.35-1.27,1.47c-.78-.15-1.85-.24-2.65-.22q.07,9.21-2.01,11.64c-1.44-1.8-3.85-1.92-5.57-3.24-3.65.63-7.7,12.83-7.78,13.39.67.35,1.48,1,1.98,1.56-.06.77.11,1.85.5,2.52,6.71.88,9.01-6.31,14.39-7.86q1.96-4.16,3.04-4.95c1.04.8,1.39,2.18,2.49,2.93,2.1-1.97,3.37-3.16,4.7-1.91l6.13,12.09c.1.76-.59,1.73-1.1,2.29q-3.93,0-4.77.43l1.22,2.31c.13.42.29.98.41,1.4.36.07.85.17,1.21.25q3.66-5.13,4.64-7.72c.27.28.62.65.89.93.93-.85,1.36-1.69,1.47-2.52,1.24,3.02,2.81,6.87,4.89,11.94q1.57-3.31,1.09-8.88c.25.3.58.7.83,1.01.37,0,.85.01,1.22.02.03-.46.08-1.06.11-1.52l1.01.58c.38-.14.88-.33,1.26-.48q4.75,10.96,6.96,11.23c.04-.39.09-.91.12-1.3,4.13,2.63,5.56,2.36,7.95,1.9,2.75,9.48-7.59,12.93-16.41,8.03q-5.53-3.07-12.14,2.13c-3.15-1.96-4.89-3.77-6.86-7.14-5.77-.83-5.33-2.29-2.85-10.4-2.55-1.67-21.94-4.26-27.82,1.04-18.3,16.49-18.18,31.43-16.47,38.86.48,2.08,4.83,16.4,7.99,19.3q.7.64,12.8,2.43c5.09.75,7.43,5.5,11.42,7.86,2.91,3.51.11,7.92,1.83,11.62,1.54,3.32,5.25,5.01,6.45,8.59.09.28.94,2.92,2.15,10.83,2.56,16.66,18.62,34.03,18.78,34.2,11.28,11.76,20.01-.93,24.21-9.55q-1.75-4.28-1.63-5.04c.89-5.63,8.57-2.75,9.87-7.86,1.61-6.31-5.22-10.92-3.47-17.26.97-3.51,2.45-4.65,8.65-9.45,19.98-15.46,16.49-22.67,16.02-23.44-7.16,2.75-20.49,7.86-35.61-37.11.41.06.96.14,1.37.2q18.66,34.57,18.82,34.62c5.03,1.62,31.81-18.02,31.91-18.27,2.35-5.83-6.64-6.09-8.14-10.55-9.94,10.18-10.24,1.36-10.24,1.27,0-.39.06-.9.09-1.29-.28.73-.7,1.68-1.03,2.38-1.98-3.27-4.51-6.16-6.42-9.47q.87-.4,9.34,4.79,1.43.88,9.37.98c2.75,2.39,5.04,3.44,10.6,2.89,8.99-.12,12.36-.17,13.24,3.08.38-.11.9-.26,1.28-.37.48.74,1.57,1.42,2.41,1.72l-1.12,1.19c1.55,1.23,2.81,2.78,4.33,4.04.73-1.12,1.71-2.61,2.44-3.73.07.33,8.32,32.14,16.02,27.71,3.29-30.16,19.27-35.33,25.04-28.15ZM61.02,84.04c.62,1.33.86,1.86,3.05,7.18-1.64-2.26-3.6-4.59-3.05-7.18Zm40.26,15.28c-.28-.02-.45-.15-.51-.2-.78-.6-1.97-1.5-4.99-1.86-2.49-.29-11.63-.54-12.02-.19-.06.06-.31.15-.51.12-.69-.11-1.16-.85-1.21-.93-.97-1.59.06-3.75.77-4.9,3.31-5.43,4.23-6.36,5.79-5.86.56.18,1.26.68,1.4,2.05.2,1.89,1.57,2.16,2.02,2.25,1.23,0,2.1-.57,2.79-1.83-.7-.59-1.41-1.18-2.12-1.76,2.82-.99,4.43-1.57,6.6-2.4-2.25,3.2-2.44,3.47-3.48,4.88,2.34,2.47,4.94,4.67,7.12,7.29.17.2.46.86.3,1.61-.22,1.07-1.22,1.76-1.96,1.71Zm23.76,9.9c-1.25.84-2.53.87-3.08.88-3.68-.21-4.74-3.04-4.97-3.9-.63-2.28.87-4.64-.27-6.9-.37-.73-.87-1.13-1.27-1.46-1.23-.99-2.57-2.32-2.83-5.6-.03-.39-.22-3.85,2.74-6.21,2.43-1.93,7.19-2.22,6.82.05-.19,1.15-.89,1.41-1.96,1.79-2.61.94-1.85,2.65-1.37,2.95-.26.1-.61.24-.87.34,3.52,5.76,5.81,11.24,7.44,17.77-.11.08-.26.2-.38.28Zm9.39-76.1c-.66-.16-1.55-.38-2.21-.54,1.48-1.85,1.48-4.71.87-7.56.71-.25,1.71-.31,2.41-.12-3.23,2.2-.14,5.55-1.07,8.22Z"/><path class="cls-1" d="m127.92,6.62c-.11.01-.17.08-.25.16-.4.42-.61.98-1,1.41-.55.6-1.24,1.03-1.78,1.63-.51.58-.97,1.18-1.4,1.85-.98,1.5-1.4,3.25-2.08,4.88-.35.83-.97,1.48-1.46,2.22l.31.28c-.27.46-.67.83-.96,1.27-.55.84-.41,1.74.25,1.57,0,.14-.02.32-.02.46.05,1.44,1.32,2.46,2.79,1.01-.76-1.31-1.55-4.22,1.72-8.93,2.21-3.18,3.77-6.08,3.92-6.56h0s.33-1.07-.03-1.25Z"/><path class="cls-1" d="m130.74.86s0,0,0-.01l-.25-.4c-.08-.12-.19-.29-.28-.41,0,0-.01-.01-.01-.02.13.2.25.4.38.6.06.08.07.2.17.24Z"/><path class="cls-1" d="m60.93,33.34c.13.19.04.45.18.64,0,0,.08.12.27.21.47.25,1.29.06,1.59,0,.22-.05,2.24-.58,5.38-3.22h0c2.96-2.49,2.54-2.77,2.37-2.9-.28-.1-.74.03-2.13.61-.5.21-1.19.49-1.56.47-.36-.02-.55-.39.51-1.27-.66.34-1.31.7-1.96,1.05.13-.09.31-.2.43-.29.88-.63,2.15-1.91,1.51-2.03-.72.55-1.44,1.11-2.16,1.67.07.07.15.14.23.21-.24.06-.48.12-.71.18-.48.39-.97.78-1.45,1.17.01,0,.03,0,.05.02.12.08,0,.37-.36.64-.2.16-.46.08-.69.16-.59.49-1.18.99-1.77,1.49-.1.16-.25.43-.26.67,0,.05,0,.13.02.18.12.19.38.17.51.35Z"/><path class="cls-1" d="m52.84,60.26c-1.62,1.02-2.63,1.91-3.99,3.51l.03,1c.28.1.56.19.85.29-.11.33-.26.76-.37,1.09-1.35.1-2.5.83-3.63,2.31q8.11-.17,9.16-2.64c.08,0,.32,0,.66-.45.25-.34.28-.58.29-.71.06-.57-.42-.99-.44-1.54-.01-.33.1-.54.21-.75,1.73-3.32,2.03-5.56.96-7.26,1.02-.59,2.41-1.4,3.02-2.81.44-1.01-.22-1.25-.86-.97,1.02-.97,2.03-1.95,3.05-2.9-1.69.24-3.01.88-5.02,2.44.47-.58.95-1.15,1.43-1.72-.05,0-.13-.02-.18-.02-.01,0-1.37.07-2.43,1.94-.17.31-.09.68-.27.99-.24.4-.77.79-1,1.2-.11.19-.26.45-.36.65-.1.18-.19.44-.25.64-.36,1.18-.02,1.5.28,1.78-.29.46-.59.92-.89,1.37.1-.06.35-.19.57-.2.99-.04.64,1.21.14,1.87-.35.46-.52.64-.94.9Z"/><path class="cls-1" d="m44.38,63.52s3.01-.15,3.67-.54c.08-.05.26-.19.66-.65.57-.67.91-1.5,1.46-2.18.49-.61,1.2-1,1.67-1.63.74-.98,1.38-2.54.5-2.91-.77-.15-1.56.25-2.48,1.25l-.87.39-.65-.2c-.3.29-.79.65-.92,1.04,0,.02-.18.5-.87,1.32-.5.58-1.07,1.08-1.55,1.67-.12.15-.28.35-.39.51-.44.62-.57,1.2-.54,1.54,0,.1.03.42.32.41Z"/><path class="cls-1" d="m111.84,217.09c-.44.13-1.62.46-2.19,1.6-.66,1.32,0,2.74-.35,4.08-.38,1.44-1.15,2.75-1.46,4.22-.03.14-.06.34-.08.48-.15,1.17.27,2.13.41,2.45.27.62,1.88,3.59,7.17,1.74,1.72-4.03,2.94-6.74,5.89-13.29.13.26.31.61.45.87.18-.65.4-1.53.44-2.2.17-3.26-1.57-5.43-2.5-6.6-1.46,3.61-3.64,5.47-7.77,6.64Z"/><path class="cls-1" d="m131.1,225.49l-.52.77c.21.23.5.53.71.76.32-.12.5-.34.53-.64.02-.26-.1-.78-.72-.9Z"/><path class="cls-1" d="m134.93,224.88c-.05,0-.1,0-.16.01.31.18.71.42,1.02.6-.2-.33-.41-.61-.86-.61Z"/><path class="cls-1" d="m184.95,166.46c-2.21,4.86-.29,7.74-.27,7.77.81,1.12,3.59.64,3.94-2.03h0c.05-.41.1-1.5-.66-2.69q-.36-.57-3.01-3.05Z"/><path class="cls-1" d="m228.43,187.94c.27-.55.55-3.24.22-4.31-.37-1.22-1.47-1.91-2.12-2.93-.28-.43-.35-.95-.63-1.38-.06-.09-.13-.2-.2-.28-.01-.01-1.39-1.65-3.32-3.33-1.1-.96-2.42-1.61-3.6-2.47-.75-.55-1.24-1.37-1.97-1.93q-.22-.17-2.6-1.06c-.67,2.29.52,2.99,1.15,3.36,1.09.63,1.66,1.76,2.5,2.63.09.09.24.19.33.29.19.21.43.51.58.76.09.14.19.33.27.47l1.41,3.22c.31,1.01.29,2.07.53,3.09q.27,1.14,1.2,1.75c1.37.89,2.59,2.35,3.63,4.34l.51-.71.6.35c.15-.26.34-.61.49-.88.42-.03.87-.69,1.02-.99Z"/><path class="cls-1" d="m246.49,170.36q.02-2.18-.18-2.45-.81-1.08-.76-1.87s.18-1.96,1.35-2.78c-.06-.36-.13-.83-.19-1.19.02.03.05.08.08.12.5.08.76-.89.76-.9.1-.41.21-1.41-.99-1.76-.27-.08-1.1-.32-.96-1.79l-.49.97c0-.18-.01-.42-.01-.6-8.26,16.52-9.13,14.99-9.5,14.34-1.6,2.75-1.9,5.02-.92,6.94.16-.17.37-.4.53-.57-.17.45-.35.91-.39,1.6-.07,1.1.26,1.75.92,1.82.01,0,3.99-.28,4.5-.37.48-.08.87-.28,1.31-.66.54-.46,1.99-4.97,2-5.01.9-2.8,1.67-4.66,2.95-5.84Z"/><path class="cls-1" d="m253.01,165.8l-.47.21c-1.01,2.02-1.85,2.07-2.17,2-2.32-.51-3.43,3.69-5.44,11.33l.62-.04-.1,1.21-.42,1.39c-.04.32-.09.74-.12,1.06.34-.25.69-.5,1.03-.75.32-1.99.71-3.32,1.53-5.27l.29-.18c-.03.17-.06.34-.09.52l-.32,1.19.12.92c-.03.36-.07.84-.1,1.2.47-.68,1.2-1.11,1.72-1.74.09-.24.21-.56.3-.8-.02.02-.21.26-.39.27.03-.06.08-.12.08-.15.02-.17,0-.35,0-.52,0-.25.02-.49.03-.74.02-.59-.03-.71-.1-.79-.05-.03-.13,0-.23.09.05-.5.04-.82,0-1.03.02,0,.06.04.07.03.24-.14.49-.88.43-1.26,0-.02-.05-.11-.12-.23.61-.83,1.07-1.4,1.65-2.08l.16-.28c-.05-.17-.12-.39-.17-.56-1.04.33-1.36,1.48-2.08,2.18-.12-.2-.24-.39-.3-.5-.02.06-.04.13-.06.19-.06.22-.1.41-.14.59-.14.08-.25.2-.43.24-.86.18-.42-1.41-.41-1.48.27-.97.82-1.67,1.26-1.59.96.18,2.46-.29,4.21-3.58l.15-1.03Z"/><path class="cls-1" d="m239.27,189.58c-.85-.32-1.92.38-2.64-.55q-.76-.97-1.23-.98c-.07,0-.15.01-.21.03-.99.21-1.33,1.29-2.2,1.66-.46.2-.88.14-1.46-.02-1.76-.49-2.52-.31-2.88-.22-.87.32-1.29.79-1.74,1.96,10.56,1.71,12.31-1.12,12.32-1.15h0c.16-.44.09-.63.05-.73Z"/><path class="cls-1" d="m240.32,189.67c-.66.3-.69.61-.6.82.05.12.45.45,1.1.16.15-.07,1.61-.94,1.62-.94.15-.11.38-.37.53-.67.29-.56.19-.82.09-1.1l-1.11.27c-.37.63-.74,1.05-1.63,1.45Z"/><path class="cls-1" d="m246.63,187.33l.46-.96-.31-.1c-.32.45-.73.94-1.52,1.1-.64.13-1.03.29-1.55.9l-.31.79c.06.09.15.2.22.29.94-.58,1.66-1.03,2.46-1.57l.55-.45Z"/><path class="cls-1" d="m250.66,185c.04-.06.09-.15.13-.21-.36.07-.56.14-.87.31-.43.27-2,1.46-3.88,5.33,1.07-1.28,1.64-1.9,2.58-2.88.78-.81,1.34-1.39,2.04-2.55Z"/><path class="cls-1" d="m263.34,166c.05-.2.1-.41.08-.53-.06-.22-.36.22-.36.22-.01.03-.02.07-.03.1-.22-.05-.48-.04-.67-.16-.16-.1-.24-.28-.4-.38-.03-.02-.08-.05-.11-.06,0,0-.12-.05-.32.15q-.17.17-2.48,5.27v-.05q-.04-.66.3-2.98s.36-2.81-.82-1.98c-.53.46-.95,1.04-1.32,1.83-.35,1.24-.39,1.37.02,2.05.26.43.68-.22,1.03-.32.19.2.26.28-.42.98-.28.29-.6.62-.71.83-.05.1-.26.73.32.56.09.83-.53,1.6-.2,2.45.02,0,.05.02.07.03.39-.2.62-.59.96-.84,1.75-1.28,1.39,1.02,1.23,2.01l-.42,1.36c-.27.58-.63,1.35-.9,1.93.43-.27.78-.64,1.19-.94.27.25.03.6.18.88.25-.05.32-.06.85-1.56.67-1.88,1.05-2.82,1.3-3.16.01.01.04.03.05.05-.04.95-.42,1.82-.57,2.74.04-.1.08-.22.11-.32h0s.01-.03.01-.03c.09-.28.21-.65.3-.93.63-2.03,2.32-7.44,1.82-9.05-.02-.08-.07-.11-.11-.16Z"/><path class="cls-1" d="m119.04,5.94c-.13.05-.3.11-.43.16.01,0,1.32-.72,1.38-.98,0-.02.14-.42,2.47-1.71.01,0,.03-.02.04-.02.06-.03.11-.06.17-.1-.03.02-.07.03-.1.05.3-.14.59-.28.83-.53-.14.03-2.54,1.06-4.08,2.19.11-.16.57-.57,2.43-1.46l.44-.26-.71.3c-.27.13-.62.32-.88.45.33-.2.66-.39.99-.58q.65-.24.72-.36c-.3.03-1.75.61-2.98,1.28.3-.13.71-.3,1.02-.43-.45.24-.91.48-1.35.73-1.06.36-2.44,1.29-2.48,1.53.2,0,.88-.33,1.55-.73l.76-.35-.77.46.1.08c-.95.41-1.91.83-2.87,1.23.21.05.41.12.62.2-.66-.07-3.25,1.41-3.27,1.87.1.02.13.03.37-.07-.13.08-1.28.75-1.24,1.08q.12.02.55-.27c1.05-.71,6.37-4.18,6.69-4.09-.14.15-3.41,2.48-3.75,2.71.42-.21.84-.43,1.26-.64-.36.29-.72.58-1.07.88.23-.11.66-.32,1.43-.84h0c.78-.53,1.39-1.26,2.18-1.78Z"/><path class="cls-1" d="m122.86,3.29s.04.04.37-.06c-.68.25-1.46.53-1.54.85.05.02.08.03.35-.08-.64.36-.69.45-.71.49.23-.06.76-.38.91-.48-.04.03-.08.05-.1.1.07,0,.2-.06.5-.22.34-.2,1.26-.71,2.47-1.33.09-.05.21-.11.3-.16-.03,0-.06.01-.09.01,0,0-.01-.02-.01-.03.07-.09.21-.19.49-.36l-.46.21-.2.08.52-.27.41-.21-.33.14-.55.28-.56.28c.08-.15.29-.12.37-.26-.06.02-.12.04-.17.07.34-.17.7-.32,1.02-.53q-2.83,1.27-2.97,1.49Z"/><path class="cls-1" d="m129.57.45c.1-.07.21-.15.3-.23-.13.03-.21.14-.32.2-.17.11-.33.22-.5.33l-.34.24-.09.08-.25.2-.09.09.25-.18.28-.21.26-.19c.15-.1.31-.2.46-.3-.14.11-.27.23-.43.31l-.19.15-.1.08-.19.15-.43.32-.41.35.23-.15-.3.26.22-.15.24-.19.18-.14.2-.17.16-.14.07-.05.19-.13.29-.25.12-.08.48-.38.33-.25-.32.24c-.09.07-.2.13-.29.21Z"/><path class="cls-1" d="m128.43,1.46c-.13.12-.4.36-.48.4l-.17.18.1-.05.08-.03.21-.21s-.07.05-.1.07c.14-.11.34-.3.37-.35Z"/><path class="cls-1" d="m128.61,1.29h-.04s0,0,0,0l-.36.31s.02,0,.03,0l.04-.03.26-.22.06-.05Z"/><polygon class="cls-1" points="129.89 .32 130 .21 130.19 0 130.16 .03 129.89 .32"/><path class="cls-1" d="m129.45.72h-.03s-.44.43-.44.43l-.2.24.31-.29.36-.39Z"/><path class="cls-1" d="m129.03,1.31c.07-.08.13-.16.2-.24,0,0-.02,0-.03,0l-.27.31s-.08.09-.12.14c-.03.03-.06.07-.09.11.12-.09.21-.2.3-.32Z"/><path class="cls-1" d="m129.67.55c.05-.06.11-.11.15-.18-.27.26-.52.54-.78.81,0,0,0,0,0,0,.2-.2.39-.4.59-.6h0s.02-.02.03-.03Z"/><path class="cls-1" d="m135.95,1.98c-.51-.25-.6-.3-.64-.36,0,0,.02-.01.03-.01l-.34-.13c-1.64-.54-2.13-.63-2.13-.63.48.23.99.35,1.49.53.54.19,1.07.39,1.6.61Z"/><path class="cls-1" d="m133.21,1.01c.2.06.46.15.66.21-.18-.06-.35-.13-.53-.19h0c-.44-.15-.89-.3-1.33-.45l.18.07,1.02.35Z"/><path class="cls-1" d="m131.19.35c-.11-.07-.24-.08-.37-.12-.21-.07-.42-.14-.63-.21.25.09.5.18.75.26.08.03.16.08.25.07Z"/><polygon class="cls-1" points="131.19 .35 131.19 .35 131.19 .35 131.19 .35"/><path class="cls-1" d="m233.97,63.3c-.18-.08-.43-.2-.62-.28.73,1.06,1.46,2.12,2.17,3.19l.83,1.14.72.4c-.11-.3-.26-.71-.38-1.01.07.05.13.11.21.13.27.07.28-.33,0-.76-.18-.29-.66-.81-.78-.5-.05.12-.45.12-.99-.75l.45.26-.05-.59c.03-.11.08-.26.11-.37.61.25,1.22.5,1.83.77-1.9-3.15-2.1-4.81-2.12-5.25,0-.07,0-.16,0-.23-.92.25-1.82-1.15-1.99-1.44.05.11.12.26.15.38.18.57.04.87-.36.76-.95-.26-1.7-.9-2.55-1.35-.24-.13-.57-.3-.81-.44.96,1.42,1.33,1.9,3.76,4.99l.38.95Z"/><path class="cls-1" d="m239.53,71.81c1.48.92,2.98,3.74,2.42,5.15.43.28.85.57,1.27.85-.02.65-.03,1.29-.06,1.94-.35-.54-.71-1.08-1.07-1.62.22,2.07,1.78,3.66,2.01,5.73.07.69-.08.75-.37.86-.08.03-1.93.84-.69,6.66.39,1.83,2.02,2.88,2.83,4.44l1.13,2.84c.15.06.36.13.52.19-.49-3.4-1.52-5.83-3.46-8.12,0-.03.52-2.72.87-4.12q.25-.02,1.57,2.12c.19-.02.44-.04.63-.06-.15-.88-.31-1.76-.48-2.64-.23-.29-.53-.68-.76-.97.69.04.78.04,1.21,0l-.42-1.5c.21.28.49.64.71.92-.33-1.21-.68-2.41-1.04-3.62q.99,2.2,1.23,2.47c.4-.52-.23-1.93-.31-2.09-.38-.83-.79-1.4-1.41-2.26l-2.49-3.77c-.26-.47-.42-.81-.34-1.31.06-.03.14-.07.2-.1-1.99-3.2-3.43-4.94-5.69-6.91-.07.79.37,2.34,1.82,4.08.05.25.12.58.17.83Z"/><path class="cls-1" d="m232.62,137.37c.94.78,2.34-.86,2.03-3.62-.03-.25-.07-.51-.11-.76-.9.5-1.64,1.3-2.2,2.39.06.6-.17,1.6.29,1.99Z"/><path class="cls-1" d="m245.87,124.32c-.15-.45-.51-1.5-.7-2.94-.16-1.16-.07-2.34-.17-3.51h0c-.02-.27-.19-1.66-1.19-2.29-.95.89-.91,5.35,1.17,7.67l.25,1.18c.19-.03.45-.08.64-.11Z"/><path class="cls-1" d="m246.24,89.23l-.68-1.16c-.14.19-.4.46-.37.7,0,0,.04.39-.11.63-.07.11-.24.12-.29.26-.05.14-.09.25-.03.64.09.54.75,1.58,1.49,1.91l.05-.68c-.13-.3-.25-.61-.38-.91l.04-.67.29-.72Z"/><path class="cls-1" d="m251,156.24l.17-1.29c.25-.12.49-.25.73-.37.19-.3.44-.69.62-.99-.04,1.61-.07,2.78.39,3.31.41.48.87-.32,1.02-.76q.13-.4.19-2.88c.15.36.35.83.5,1.19.14-.25.51-.91.61-2.07q.07-.8-1-4.59c-.67.87-.57,1.98-.9,2.95-.3.87-.42.85-.8.8-1.09-.16-2.53,3.32-1.53,4.7Z"/><path class="cls-1" d="m251.84,146.71l-.28.71-.14.92-.29.71-.16.53q.51,1.06.57,1.09c.08.03.34.12.71-.61.02-.05.05-.11.07-.15l-.29.04c-.03-.15-.11-.35-.11-.5.03-.79.14-1.58.2-2.36l-.28-.36Z"/><polygon class="cls-1" points="252.89 148.81 252.99 148.2 252.93 147.72 252.85 147.65 252.54 148.55 252.6 149.08 252.89 148.81"/><path class="cls-1" d="m253.3,146.84l.12.67.29.24h0c0-.29.08-.69,0-.96-.1-.37-.29-.71-.44-1.06-.14-.36-.29-.72-.43-1.07-.05.05-.13.11-.18.15-.01.74.14,1.3.42,1.54l.22.5Z"/><path class="cls-1" d="m250.45,148.54c.48-.11.64-.49.68-.6.07-.22.45-2.62.49-2.9,0-.05.02-.12.02-.17-.38.2-.75.44-1.14.63-.12.37-.4,1.22-.05,3.03Z"/><path class="cls-1" d="m247.11,131.51c-.75,1.55-.2,6.64-.19,6.69.09.71.42,2.31,1.36,2-.07.78.05,1.31.39,1.66l.93-.5.42.25.42.83c.11-.32.27-.74.38-1.05.64.29.67.49.92,2.46.04.34.29.74.56.39h0c.35-1.09-.46-5.64-2.45-4.5l-.76-.38c-.05-.54-.09-1.07-.14-1.61.01-.08.95-7.72-1.28-6.86-.36.19-.5.47-.57.62Z"/><path class="cls-1" d="m248.05,146.85c.02-.12.06-.37.06-.68,0-.44-.1-.98-.53-1.05-.06.76.01,1.37.21,1.9.08-.05.18-.12.26-.18Z"/><path class="cls-1" d="m253.79,145.2c.09-.15.2-.35.29-.5-.2-.65-.43-1.29-.64-1.93l-.74-.17c.39.88.6,1.48.81,2.3l.29.29Z"/><path class="cls-1" d="m253.17,175.23c0-.28.01-.65.02-.93-.05.01-.09.03-.14.06-.29.18-.69.72-.95,1.69h.48s0-.01,0-.01l.59-.81Z"/><path class="cls-1" d="m255.12,169.14l-.24-.56.14-1.1.44-.52.36-.57.04-.9c.07-.5.19-.98.29-1.48h0c.08-.41.14-1.36-.23-1.17-.08.07-.34.28-.55,1,0,.03-.89,3.91-.92,4.18-.21,1.71.46,1.29.67,1.12Z"/><path class="cls-1" d="m257.86,175.16l-.15-.24-.41.96-.23,1.01-.21.98q.64-1.18.78-1.72h0c.08-.32.15-.65.22-.98Z"/><path class="cls-1" d="m254.37,181.56l.71-1.69.11-.53c-.07.08-.2.16-.24.26-.06.14-.62,1.4-1.09,2.73l.52-.77Z"/><polygon class="cls-1" points="253.04 182.16 252.96 182.7 252.96 182.7 253.29 182.2 253.04 182.16"/><path class="cls-1" d="m251.07,182.94l-.12-.05c-.38.4-.68.65-1.04.86-.05.2-.11.4-.16.6.3.07.74-.29,1.2-.99h0s.13-.42.13-.42Z"/><polygon class="cls-1" points="248.98 184.9 248.18 185.76 248.51 185.8 248.93 185.4 248.98 184.9"/><path class="cls-1" d="m244.71,191.1l-.35.42.18.16c.06-.19.12-.39.18-.58Z"/><polygon class="cls-1" points="252.23 188.23 252.11 187.83 251.44 188.52 251.29 189.41 251.66 189.33 252.23 188.23"/><path class="cls-1" d="m255.03,172.38c-.18.12-.3.22-.5.4l-.41.95c.07.11.15.25.22.36.72-.6,1.01-.13,1.11.03l.54-.24c.29-.29.41-.88.58-1.26-.35-.6-.83-.67-1.54-.24Z"/></g></svg>