<?xml version="1.0" encoding="UTF-8"?><svg id="Layer_2" xmlns="http://www.w3.org/2000/svg" viewBox="0 0 502.05 401.45"><defs><style>.cls-1{fill:#00ff40;}.cls-2{fill:none;stroke:#00ff40;stroke-miterlimit:10;stroke-width:1.58px;}</style></defs><g id="Layer_1-2"><path class="cls-1" d="m185.68,185.18c1.8-10.51,5.11-21.08,5.24-30.55.09-6.91-4.25-13.26-6.32-18.36-1.45-3.59-1.09-7.7-3.22-11.43-2.61-4.59-4.37-6.48-5.89-8.42-1.53-1.94-5.15-3.54-9.21-4.9,0,0,0,0,0,0-2.5-1.05-5.33-2.2-6.24-2.56-1.07-.42-6.91-2.51-10.26-3.7-1.27-.45-2.18-1.39-2.38-2.5-.02-.11-.04-.22-.05-.33-.11-.76.17-1.52.71-2.15.46-.54.98-1.19,1.36-1.76.82-1.26.99-4.39.99-4.39,0,0,.4-.13,1.37-.57.97-.44,1.09-1.88,1.15-2.57.06-.69.58-3.36.71-4.62.14-1.26-.36-1.78-1.05-1.93s-1.52.84-1.52.84c0,0,.26-1.4.29-2.53.05-1.59-.17-2.53-.35-4.75-.13-1.63-.6-4.04-3.83-6.62-4.32-3.45-9.75-3.44-10.66-3.41-.91-.03-6.34-.04-10.66,3.41-3.23,2.57-3.69,4.99-3.83,6.62-.18,2.22-.4,3.16-.35,4.75.03,1.14.29,2.53.29,2.53,0,0-.84-.99-1.52-.84s-1.18.67-1.05,1.93c.14,1.26.65,3.92.71,4.62.06.69.18,2.12,1.15,2.57.97.44,1.37.57,1.37.57,0,0,.17,3.13.99,4.39.31.47.72,1,1.11,1.47.49.58.76,1.27.71,1.98-.07.89-.29,1.9-.82,2.81-2.76.98-10.39,3.7-11.63,4.19-.78.3-2.99,1.2-5.18,2.11,0,0,0,0,0,0-4.6,1.44-8.87,3.18-10.56,5.34-1.52,1.94-3.28,3.83-5.89,8.42-2.12,3.73-1.76,7.84-3.21,11.43-2.06,5.11-6.41,11.45-6.32,18.36.13,9.47,3.44,20.04,5.24,30.55,1.41,8.26-.83,8.08.14,11.29,1.9,6.32,2.94,11.27,5.92,13.16,3.46,2.18-.85-7.84-.62-10.23.33-3.46,3.46-1.83,4.49.89.68,1.79,3.13,1.48,3.13,1.48,0,0-.9-4.52-1.85-6.11-1.37-2.3-3.39-5.5-3.57-7.95-.18-2.44-.36-31.55,1.8-34.97,3.48-5.5,8.03-13.31,8.03-13.31,0,0,2.79,8.1,2.43,23.5-.26,10.94-5.41,23.52-5.53,30.11-.23,12.94.45,46.91.67,63.88.1,7.9-3.16,16.59-3.16,24.49s1.21,28.24,1.21,32.19.24,6.32-2.67,9.08-9.62,8.61-4.86,9.87c3.27.87,5.73,1,7.71.89,2.44-.13,3.8-.52,5.74-3.48,1.94-2.96,3.13-.62,5.65-4.07,1.38-1.9-1.68-4.53-1.59-9.4.23-12.66,7.53-20.81,7.71-29.4.09-4.34-.93-12.88,1.26-19.9,1.7-5.44,17.25-47.99,17.25-47.99,0,0,15.55,42.54,17.25,47.99,2.19,7.01,1.17,15.55,1.26,19.9.18,8.59,7.48,16.74,7.71,29.4.09,4.88-2.98,7.51-1.59,9.4,2.52,3.46,3.7,1.11,5.65,4.07,1.94,2.96,3.3,3.35,5.74,3.48,1.98.11,4.44-.02,7.71-.89,4.76-1.27-1.94-7.11-4.86-9.87-2.91-2.76-2.67-5.13-2.67-9.08s1.21-24.29,1.21-32.19-3.26-16.59-3.16-24.49c.22-16.97.9-50.95.67-63.88-.12-6.59-5.27-19.18-5.53-30.11-.36-15.4,2.43-23.5,2.43-23.5,0,0,4.56,7.81,8.03,13.31,2.17,3.43,1.98,32.53,1.8,34.97-.18,2.44-2.19,5.65-3.57,7.95-.95,1.59-1.85,6.11-1.85,6.11,0,0,2.45.31,3.13-1.48,1.03-2.72,4.16-4.34,4.49-.89.23,2.4-4.08,12.42-.62,10.23,2.98-1.88,4.02-6.83,5.92-13.16.97-3.22-1.28-3.04.14-11.29Z"/><path class="cls-2" d="m148.32,250.35c.04,2.38.07,4.59.09,6.57.1,7.9-3.16,16.59-3.16,24.49s1.21,28.24,1.21,32.19.24,6.32-2.67,9.08c-2.91,2.76-9.62,8.61-4.86,9.87,3.27.87,5.73,1,7.71.89,2.44-.13,3.8-.52,5.74-3.48,1.94-2.96,3.13-.62,5.65-4.07,1.38-1.9-1.68-4.53-1.59-9.4.23-12.66,7.53-20.81,7.71-29.4.09-4.34-.93-12.88,1.26-19.9,1.7-5.44,17.25-47.99,17.25-47.99,0,0,15.55,42.54,17.25,47.99,2.19,7.01,1.17,15.55,1.26,19.9.18,8.59,7.48,16.74,7.71,29.4.09,4.88-2.98,7.51-1.59,9.4,2.52,3.46,3.7,1.11,5.65,4.07,1.94,2.96,3.3,3.35,5.74,3.48,1.98.11,4.44-.02,7.71-.89,4.76-1.27-1.94-7.11-4.86-9.87-2.91-2.76-2.67-5.13-2.67-9.08s1.21-24.29,1.21-32.19-3.26-16.59-3.16-24.49c.22-16.97.9-50.95.67-63.88-.12-6.59-5.27-19.18-5.53-30.11-.36-15.4,2.43-23.5,2.43-23.5,0,0,4.56,7.81,8.03,13.31,2.17,3.43,1.98,32.53,1.8,34.97-.18,2.44-2.19,5.65-3.57,7.95-.95,1.59-1.85,6.11-1.85,6.11,0,0,2.45.31,3.13-1.48,1.03-2.72,4.16-4.34,4.49-.89.23,2.4-4.08,12.42-.62,10.23,2.98-1.88,4.02-6.83,5.92-13.16.97-3.22-1.28-3.04.14-11.29,1.8-10.51,5.11-21.08,5.24-30.55.09-6.91-4.25-13.26-6.32-18.36-1.45-3.59-1.09-7.7-3.22-11.43-2.61-4.59-4.37-6.48-5.89-8.42-1.53-1.94-5.15-3.54-9.21-4.9,0,0,0,0,0,0-2.5-1.05-5.33-2.2-6.24-2.56-1.07-.42-6.91-2.51-10.26-3.7-1.27-.45-2.18-1.39-2.38-2.5-.02-.11-.04-.22-.05-.33-.11-.76.17-1.52.71-2.15.46-.54.98-1.19,1.36-1.76.82-1.26.99-4.39.99-4.39,0,0,.4-.13,1.37-.57.97-.44,1.09-1.88,1.15-2.57.06-.69.58-3.36.71-4.62.14-1.26-.36-1.78-1.05-1.93-.68-.15-1.52.84-1.52.84,0,0,.26-1.4.29-2.53.05-1.59-.17-2.53-.35-4.75-.13-1.63-.6-4.04-3.83-6.62-4.32-3.45-9.75-3.44-10.66-3.41-.91-.03-6.34-.04-10.66,3.41-3.23,2.57-3.69,4.99-3.83,6.62-.18,2.22-.4,3.16-.35,4.75.03,1.14.29,2.53.29,2.53,0,0-.84-.99-1.52-.84-.68.15-1.18.67-1.05,1.93.14,1.26.65,3.92.71,4.62.06.69.18,2.12,1.15,2.57.97.44,1.37.57,1.37.57,0,0,.17,3.13.99,4.39.31.47.72,1,1.11,1.47.49.58.76,1.27.71,1.98-.07.89-.29,1.9-.82,2.81-2.76.98-10.39,3.7-11.63,4.19"/><path class="cls-2" d="m217,250.9c5.05-14.02,11.51-31.7,11.51-31.7,0,0,15.55,42.54,17.25,47.99,2.19,7.01,1.17,15.55,1.26,19.9.18,8.59,7.48,16.74,7.71,29.4.09,4.88-2.98,7.51-1.59,9.4,2.52,3.46,3.7,1.11,5.65,4.07,1.94,2.96,3.3,3.35,5.74,3.48,1.98.11,4.44-.02,7.71-.89,4.76-1.27-1.94-7.11-4.86-9.87-2.91-2.76-2.67-5.13-2.67-9.08s1.21-24.29,1.21-32.19-3.26-16.59-3.16-24.49c.22-16.97.9-50.95.67-63.88-.12-6.59-5.27-19.18-5.53-30.11-.36-15.4,2.43-23.5,2.43-23.5,0,0,4.56,7.81,8.03,13.31,2.17,3.43,1.98,32.53,1.8,34.97-.18,2.44-2.19,5.65-3.57,7.95-.95,1.59-1.85,6.11-1.85,6.11,0,0,2.45.31,3.13-1.48,1.03-2.72,4.16-4.34,4.49-.89.23,2.4-4.08,12.42-.62,10.23,2.98-1.88,4.02-6.83,5.92-13.16.97-3.22-1.28-3.04.14-11.29,1.8-10.51,5.11-21.08,5.24-30.55.09-6.91-4.25-13.26-6.32-18.36-1.45-3.59-1.09-7.7-3.22-11.43-2.61-4.59-4.37-6.48-5.89-8.42-1.53-1.94-5.15-3.54-9.21-4.9,0,0,0,0,0,0-2.5-1.05-5.33-2.2-6.24-2.56-1.07-.42-6.91-2.51-10.26-3.7-1.27-.45-2.18-1.39-2.38-2.5-.02-.11-.04-.22-.05-.33-.11-.76.17-1.52.71-2.15.46-.54.98-1.19,1.36-1.76.82-1.26.99-4.39.99-4.39,0,0,.4-.13,1.37-.57.97-.44,1.09-1.88,1.15-2.57.06-.69.58-3.36.71-4.62s-.36-1.78-1.05-1.93c-.68-.15-1.52.84-1.52.84,0,0,.26-1.4.29-2.53.05-1.59-.17-2.53-.35-4.75-.13-1.63-.6-4.04-3.83-6.62-4.32-3.45-9.75-3.44-10.66-3.41-.91-.03-6.34-.04-10.66,3.41-3.23,2.57-3.69,4.99-3.83,6.62-.18,2.22-.4,3.16-.35,4.75.03,1.14.29,2.53.29,2.53,0,0-.84-.99-1.52-.84s-1.18.67-1.05,1.93c.14,1.26.65,3.92.71,4.62.06.69.18,2.12,1.15,2.57s1.37.57,1.37.57c0,0,.17,3.13.99,4.39.31.47.72,1,1.11,1.47.49.58.76,1.27.71,1.98-.07.89-.29,1.9-.82,2.81-2.47.88-8.85,3.15-11.05,3.97"/><path class="cls-2" d="m262.67,250.9c5.05-14.02,11.51-31.7,11.51-31.7,0,0,15.55,42.54,17.25,47.99,2.19,7.01,1.17,15.55,1.26,19.9.18,8.59,7.48,16.74,7.71,29.4.09,4.88-2.98,7.51-1.59,9.4,2.52,3.46,3.7,1.11,5.65,4.07,1.94,2.96,3.3,3.35,5.74,3.48,1.98.11,4.44-.02,7.71-.89,4.76-1.27-1.94-7.11-4.86-9.87-2.91-2.76-2.67-5.13-2.67-9.08s1.21-24.29,1.21-32.19-3.26-16.59-3.16-24.49c.22-16.97.9-50.95.67-63.88-.12-6.59-5.27-19.18-5.53-30.11-.36-15.4,2.43-23.5,2.43-23.5,0,0,4.56,7.81,8.03,13.31,2.17,3.43,1.98,32.53,1.8,34.97-.18,2.44-2.19,5.65-3.57,7.95-.95,1.59-1.85,6.11-1.85,6.11,0,0,2.45.31,3.13-1.48,1.03-2.72,4.16-4.34,4.49-.89.23,2.4-4.08,12.42-.62,10.23,2.98-1.88,4.02-6.83,5.92-13.16.97-3.22-1.28-3.04.14-11.29,1.8-10.51,5.11-21.08,5.24-30.55.09-6.91-4.25-13.26-6.32-18.36-1.45-3.59-1.09-7.7-3.22-11.43-2.61-4.59-4.37-6.48-5.89-8.42-1.53-1.94-5.15-3.54-9.21-4.9,0,0,0,0,0,0-2.5-1.05-5.33-2.2-6.24-2.56-1.07-.42-6.91-2.51-10.26-3.7-1.27-.45-2.18-1.39-2.38-2.5-.02-.11-.04-.22-.05-.33-.11-.76.17-1.52.71-2.15.46-.54.98-1.19,1.36-1.76.82-1.26.99-4.39.99-4.39,0,0,.4-.13,1.37-.57s1.09-1.88,1.15-2.57c.06-.69.58-3.36.71-4.62.14-1.26-.36-1.78-1.05-1.93s-1.52.84-1.52.84c0,0,.26-1.4.29-2.53.05-1.59-.17-2.53-.35-4.75-.13-1.63-.6-4.04-3.83-6.62-4.32-3.45-9.75-3.44-10.66-3.41-.91-.03-6.34-.04-10.66,3.41-3.23,2.57-3.69,4.99-3.83,6.62-.18,2.22-.4,3.16-.35,4.75.03,1.14.29,2.53.29,2.53,0,0-.84-.99-1.52-.84s-1.18.67-1.05,1.93c.14,1.26.65,3.92.71,4.62.06.69.18,2.12,1.15,2.57s1.37.57,1.37.57c0,0,.17,3.13.99,4.39.31.47.72,1,1.11,1.47.49.58.76,1.27.71,1.98-.07.89-.29,1.9-.82,2.81-2.76.98-10.39,3.7-11.63,4.19"/><path class="cls-2" d="m239.84,250.35c.04,2.38.07,4.59.09,6.57.1,7.9-3.16,16.59-3.16,24.49s1.21,28.24,1.21,32.19.24,6.32-2.67,9.08c-2.91,2.76-9.62,8.61-4.86,9.87,3.27.87,5.73,1,7.71.89,2.44-.13,3.8-.52,5.74-3.48,1.94-2.96,3.13-.62,5.65-4.07,1.38-1.9-1.68-4.53-1.59-9.4.1-5.73,1.65-10.53,3.34-14.87"/><path class="cls-2" d="m285.63,250.35c.04,2.38.07,4.59.09,6.57.1,7.9-3.16,16.59-3.16,24.49s1.21,28.24,1.21,32.19.24,6.32-2.67,9.08c-2.91,2.76-9.62,8.61-4.86,9.87,3.27.87,5.73,1,7.71.89,2.44-.13,3.8-.52,5.74-3.48,1.94-2.96,3.13-.62,5.65-4.07,1.38-1.9-1.68-4.53-1.59-9.4.1-5.73,1.65-10.53,3.34-14.87"/><path class="cls-2" d="m308.51,250.9c5.05-14.02,11.51-31.7,11.51-31.7,0,0,15.55,42.54,17.25,47.99,2.19,7.01,1.17,15.55,1.26,19.9.18,8.59,7.48,16.74,7.71,29.4.09,4.88-2.98,7.51-1.59,9.4,2.52,3.46,3.7,1.11,5.65,4.07,1.94,2.96,3.3,3.35,5.74,3.48,1.98.11,4.44-.02,7.71-.89,4.76-1.27-1.94-7.11-4.86-9.87-2.91-2.76-2.67-5.13-2.67-9.08s1.21-24.29,1.21-32.19-3.26-16.59-3.16-24.49c.22-16.97.9-50.95.67-63.88-.12-6.59-5.27-19.18-5.53-30.11-.36-15.4,2.43-23.5,2.43-23.5,0,0,4.56,7.81,8.03,13.31,2.17,3.43,1.98,32.53,1.8,34.97-.18,2.44-2.19,5.65-3.57,7.95-.95,1.59-1.85,6.11-1.85,6.11,0,0,2.45.31,3.13-1.48,1.03-2.72,4.16-4.34,4.49-.89.23,2.4-4.08,12.42-.62,10.23,2.98-1.88,4.02-6.83,5.92-13.16.97-3.22-1.28-3.04.14-11.29,1.8-10.51,5.11-21.08,5.24-30.55.09-6.91-4.25-13.26-6.32-18.36-1.45-3.59-1.09-7.7-3.22-11.43-2.61-4.59-4.37-6.48-5.89-8.42-1.53-1.94-5.15-3.54-9.21-4.9,0,0,0,0,0,0-2.5-1.05-5.33-2.2-6.24-2.56-1.07-.42-6.91-2.51-10.26-3.7-1.27-.45-2.18-1.39-2.38-2.5-.02-.11-.04-.22-.05-.33-.11-.76.17-1.52.71-2.15.46-.54.98-1.19,1.36-1.76.82-1.26.99-4.39.99-4.39,0,0,.4-.13,1.37-.57.97-.44,1.09-1.88,1.15-2.57.06-.69.58-3.36.71-4.62s-.36-1.78-1.05-1.93-1.52.84-1.52.84c0,0,.26-1.4.29-2.53.05-1.59-.17-2.53-.35-4.75-.13-1.63-.6-4.04-3.83-6.62-4.32-3.45-9.75-3.44-10.66-3.41-.91-.03-6.34-.04-10.66,3.41-3.23,2.57-3.69,4.99-3.83,6.62-.18,2.22-.4,3.16-.35,4.75.03,1.14.29,2.53.29,2.53,0,0-.84-.99-1.52-.84s-1.18.67-1.05,1.93c.14,1.26.65,3.92.71,4.62.06.69.18,2.12,1.15,2.57s1.37.57,1.37.57c0,0,.17,3.13.99,4.39.31.47.72,1,1.11,1.47.49.58.76,1.27.71,1.98-.07.89-.29,1.9-.82,2.81-2.47.88-8.85,3.15-11.05,3.97"/><path class="cls-2" d="m331.28,250.35c.04,2.38.07,4.59.09,6.57.1,7.9-3.16,16.59-3.16,24.49s1.21,28.24,1.21,32.19.24,6.32-2.67,9.08c-2.91,2.76-9.62,8.61-4.86,9.87,3.27.87,5.73,1,7.71.89,2.44-.13,3.8-.52,5.74-3.48,1.94-2.96,3.13-.62,5.65-4.07,1.38-1.9-1.68-4.53-1.59-9.4.1-5.73,1.65-10.53,3.34-14.87"/><path class="cls-2" d="m354.16,250.9c5.05-14.02,11.51-31.7,11.51-31.7,0,0,15.55,42.54,17.25,47.99,2.19,7.01,1.17,15.55,1.26,19.9.18,8.59,7.48,16.74,7.71,29.4.09,4.88-2.98,7.51-1.59,9.4,2.52,3.46,3.7,1.11,5.65,4.07,1.94,2.96,3.3,3.35,5.74,3.48,1.98.11,4.44-.02,7.71-.89,4.76-1.27-1.94-7.11-4.86-9.87-2.91-2.76-2.67-5.13-2.67-9.08s1.21-24.29,1.21-32.19-3.26-16.59-3.16-24.49c.22-16.97.9-50.95.67-63.88-.12-6.59-5.27-19.18-5.53-30.11-.36-15.4,2.43-23.5,2.43-23.5,0,0,4.56,7.81,8.03,13.31,2.17,3.43,1.98,32.53,1.8,34.97-.18,2.44-2.19,5.65-3.57,7.95-.95,1.59-1.85,6.11-1.85,6.11,0,0,2.45.31,3.13-1.48,1.03-2.72,4.16-4.34,4.49-.89.23,2.4-4.08,12.42-.62,10.23,2.98-1.88,4.02-6.83,5.92-13.16.97-3.22-1.28-3.04.14-11.29,1.8-10.51,5.11-21.08,5.24-30.55.09-6.91-4.25-13.26-6.32-18.36-1.45-3.59-1.09-7.7-3.22-11.43-2.61-4.59-4.37-6.48-5.89-8.42-1.53-1.94-5.15-3.54-9.21-4.9,0,0,0,0,0,0-2.5-1.05-5.33-2.2-6.24-2.56-1.07-.42-6.91-2.51-10.26-3.7-1.27-.45-2.18-1.39-2.38-2.5-.02-.11-.04-.22-.05-.33-.11-.76.17-1.52.71-2.15.46-.54.98-1.19,1.36-1.76.82-1.26.99-4.39.99-4.39,0,0,.4-.13,1.37-.57.97-.44,1.09-1.88,1.15-2.57.06-.69.58-3.36.71-4.62s-.36-1.78-1.05-1.93-1.52.84-1.52.84c0,0,.26-1.4.29-2.53.05-1.59-.17-2.53-.35-4.75-.13-1.63-.6-4.04-3.83-6.62-4.32-3.45-9.75-3.44-10.66-3.41-.91-.03-6.34-.04-10.66,3.41-3.23,2.57-3.69,4.99-3.83,6.62-.18,2.22-.4,3.16-.35,4.75.03,1.14.29,2.53.29,2.53,0,0-.84-.99-1.52-.84s-1.18.67-1.05,1.93c.14,1.26.65,3.92.71,4.62.06.69.18,2.12,1.15,2.57.97.44,1.37.57,1.37.57,0,0,.17,3.13.99,4.39.31.47.72,1,1.11,1.47.49.58.76,1.27.71,1.98-.07.89-.29,1.9-.82,2.81-2.47.88-8.85,3.15-11.05,3.97"/><path class="cls-2" d="m194.17,250.9c.03,2.17.06,4.19.09,6.02.1,7.9-3.16,16.59-3.16,24.49s1.21,28.24,1.21,32.19.24,6.32-2.67,9.08c-2.91,2.76-9.62,8.61-4.86,9.87,3.27.87,5.73,1,7.71.89,2.44-.13,3.8-.52,5.74-3.48,1.94-2.96,3.13-.62,5.65-4.07,1.38-1.9-1.68-4.53-1.59-9.4.1-5.68,1.63-10.45,3.3-14.76"/><polyline class="cls-2" points="420.19 13.21 450.57 13.21 466.21 25.72"/><line class="cls-2" x1="327.83" y1="12.98" x2="343.25" y2="25.52"/><line class="cls-2" x1="343.25" y1="12.98" x2="358.67" y2="25.52"/><line class="cls-2" x1="312.51" y1="12.98" x2="327.93" y2="25.52"/><polyline class="cls-2" points="266.13 .79 281.77 13.21 358.52 13.21"/><line class="cls-2" x1="496.95" y1="50.78" x2="466.29" y2="25.78"/><line class="cls-2" x1="481.96" y1="52.41" x2="466.54" y2="39.88"/><line class="cls-2" x1="481.67" y1="100.76" x2="481.67" y2="38.33"/><polyline class="cls-2" points="420.19 388.24 450.57 388.24 466.21 375.74"/><line class="cls-2" x1="327.83" y1="388.48" x2="343.25" y2="375.94"/><line class="cls-2" x1="343.25" y1="388.48" x2="358.67" y2="375.94"/><line class="cls-2" x1="297.09" y1="388.48" x2="312.51" y2="375.94"/><line class="cls-2" x1="312.51" y1="388.48" x2="327.93" y2="375.94"/><polyline class="cls-2" points="266.13 400.66 281.77 388.24 358.52 388.24"/><polyline class="cls-2" points="496.95 400.66 496.95 350.68 496.95 266.42"/><line class="cls-2" x1="496.95" y1="350.68" x2="466.29" y2="375.67"/><polyline class="cls-2" points="496.95 275.7 481.67 288.42 481.67 363.13"/><line class="cls-2" x1="466.21" y1="354.19" x2="466.21" y2="375.67"/><ellipse class="cls-2" cx="435.47" cy="25.52" rx="4.31" ry="3.51"/><ellipse class="cls-2" cx="496.95" cy="262.91" rx="4.31" ry="3.51"/><ellipse class="cls-2" cx="466.21" cy="350.68" rx="4.31" ry="3.51"/><polyline class="cls-2" points="81.86 13.21 51.49 13.21 35.85 25.72"/><line class="cls-2" x1="174.23" y1="12.98" x2="158.81" y2="25.52"/><line class="cls-2" x1="158.81" y1="12.98" x2="143.39" y2="25.52"/><line class="cls-2" x1="189.55" y1="12.98" x2="174.13" y2="25.52"/><polyline class="cls-2" points="235.92 .79 220.29 13.21 143.53 13.21"/><line class="cls-2" x1="5.11" y1="50.78" x2="35.77" y2="25.78"/><line class="cls-2" x1="20.1" y1="52.41" x2="35.52" y2="39.88"/><line class="cls-2" x1="20.38" y1="100.76" x2="20.38" y2="38.33"/><polyline class="cls-2" points="5.11 400.66 66.59 400.66 97.33 375.67 128.07 375.67 158.81 400.66 251.03 400.66 343.25 400.66 373.99 375.67 404.73 375.67 435.47 400.66 496.95 400.66"/><polyline class="cls-2" points="81.86 388.24 51.49 388.24 35.85 375.74"/><line class="cls-2" x1="174.23" y1="388.48" x2="158.81" y2="375.94"/><line class="cls-2" x1="158.81" y1="388.48" x2="143.39" y2="375.94"/><line class="cls-2" x1="204.97" y1="388.48" x2="189.55" y2="375.94"/><line class="cls-2" x1="189.55" y1="388.48" x2="174.13" y2="375.94"/><polyline class="cls-2" points="235.92 400.66 220.29 388.24 143.53 388.24"/><polyline class="cls-2" points="20.38 325.69 35.81 311.02 35.89 250.71 5.11 225.72 5.11 188.7 20.38 175.74 20.1 126.04 5.11 113.99 5.11 50.78 5.11 .79 66.59 .79 97.33 25.78 128.07 25.78 158.81 .79 251.03 .79 343.25 .79 373.99 25.78 404.73 25.78 435.47 .79 496.95 .79 496.95 50.78 496.95 113.99 481.96 126.04 481.67 175.74 496.95 188.7 496.95 225.72 466.17 250.71 466.25 311.02 481.67 325.69"/><polyline class="cls-2" points="5.11 400.66 5.11 350.68 5.11 266.42"/><line class="cls-2" x1="5.11" y1="350.68" x2="35.77" y2="375.67"/><polyline class="cls-2" points="5.11 275.7 20.38 288.42 20.38 363.13"/><line class="cls-2" x1="35.85" y1="354.19" x2="35.85" y2="375.67"/><ellipse class="cls-2" cx="66.59" cy="25.52" rx="4.31" ry="3.51"/><ellipse class="cls-2" cx="481.96" cy="104.27" rx="4.31" ry="3.51"/><ellipse class="cls-2" cx="20.1" cy="104.27" rx="4.31" ry="3.51"/><ellipse class="cls-2" cx="5.11" cy="262.91" rx="4.31" ry="3.51"/><ellipse class="cls-2" cx="35.85" cy="350.68" rx="4.31" ry="3.51"/></g></svg>